<svg width="18" height="38" viewBox="0 0 18 38" fill="none" xmlns="http://www.w3.org/2000/svg">
<path d="M12.6 7.76227V24.7168H5.4V7.76227H12.6ZM15.3 0.980469H2.7C1.20937 0.980469 0 2.49931 0 4.37137V33.7592C0 35.6312 1.20937 37.1501 2.7 37.1501H15.3C16.7906 37.1501 18 35.6312 18 33.7592V4.37137C18 2.49931 16.7906 0.980469 15.3 0.980469ZM2.7 34.8895C2.205 34.8895 1.8 34.3809 1.8 33.7592V4.37137C1.8 3.74971 2.205 3.24107 2.7 3.24107H15.3C15.795 3.24107 16.2 3.74971 16.2 4.37137V33.7592C16.2 34.3809 15.795 34.8895 15.3 34.8895H2.7ZM13.725 5.50167H4.275C3.90375 5.50167 3.6 5.88315 3.6 6.3494V26.1297C3.6 26.5959 3.90375 26.9774 4.275 26.9774H13.725C14.0962 26.9774 14.4 26.5959 14.4 26.1297V6.3494C14.4 5.88315 14.0962 5.50167 13.725 5.50167ZM11.025 30.3683H6.975C6.60375 30.3683 6.3 30.7498 6.3 31.216V31.7812C6.3 32.2474 6.60375 32.6289 6.975 32.6289H11.025C11.3962 32.6289 11.7 32.2474 11.7 31.7812V31.216C11.7 30.7498 11.3962 30.3683 11.025 30.3683Z" fill="#30233D"/>
</svg>
